<?xml version="1.0" encoding="UTF-8" standalone="no"?>
<!DOCTYPE svg PUBLIC "-//W3C//DTD SVG 1.1//EN" "http://www.w3.org/Graphics/SVG/1.1/DTD/svg11.dtd">
<svg width="100%" height="100%" viewBox="0 0 50 32" version="1.1" xmlns="http://www.w3.org/2000/svg" xmlns:xlink="http://www.w3.org/1999/xlink" xml:space="preserve" xmlns:serif="http://www.serif.com/" style="fill-rule:evenodd;clip-rule:evenodd;stroke-linejoin:round;stroke-miterlimit:2;">
    <g id="user" transform="matrix(1,0,0,0.631609,0,0)">
        <rect x="0" y="0" width="50" height="50" style="fill:none;"/>
        <clipPath id="_clip1">
            <rect x="0" y="0" width="50" height="50"/>
        </clipPath>
        <g clip-path="url(#_clip1)">
            <g transform="matrix(2.95166,0,0,4.67324,-33.0359,-64.7317)">
                <path d="M24.516,23.84C24.516,23.84 22.434,24.551 19.617,24.551C16.797,24.551 14.809,23.84 14.809,23.84C14.809,21.633 15.727,19.699 17.109,18.617C17.715,19.348 18.633,19.813 19.66,19.813C20.688,19.813 21.605,19.348 22.215,18.617C23.594,19.699 24.516,21.633 24.516,23.84ZM22.344,16.52C22.344,16.875 22.277,17.215 22.141,17.543C22.004,17.871 21.813,18.156 21.559,18.41C21.309,18.66 21.016,18.852 20.688,18.988C20.359,19.121 20.016,19.191 19.66,19.191C19.305,19.191 18.965,19.121 18.633,18.988C18.305,18.852 18.016,18.66 17.762,18.41C17.512,18.156 17.316,17.871 17.18,17.543C17.047,17.215 16.977,16.875 16.977,16.52C16.977,16.168 17.047,15.824 17.18,15.5C17.316,15.172 17.512,14.883 17.762,14.633C18.016,14.383 18.305,14.191 18.633,14.055C18.965,13.918 19.305,13.852 19.66,13.852C20.016,13.852 20.359,13.918 20.688,14.055C21.016,14.191 21.309,14.383 21.559,14.633C21.813,14.883 22.004,15.172 22.141,15.5C22.277,15.824 22.344,16.168 22.344,16.52Z"/>
            </g>
        </g>
    </g>
</svg>
