<?xml version="1.0" encoding="UTF-8" standalone="no"?>
<!DOCTYPE svg PUBLIC "-//W3C//DTD SVG 1.1//EN" "http://www.w3.org/Graphics/SVG/1.1/DTD/svg11.dtd">
<svg width="100%" height="100%" viewBox="0 0 30 31" version="1.1" xmlns="http://www.w3.org/2000/svg" xmlns:xlink="http://www.w3.org/1999/xlink" xml:space="preserve" xmlns:serif="http://www.serif.com/" style="fill-rule:evenodd;clip-rule:evenodd;stroke-linejoin:round;stroke-miterlimit:2;">
    <g transform="matrix(1,0,0,1,-162,-226)">
        <g id="bell" transform="matrix(0.6,0,0,0.6,162,226.758)">
            <rect x="0" y="0" width="50" height="50" style="fill:none;"/>
            <clipPath id="_clip1">
                <rect x="0" y="0" width="50" height="50"/>
            </clipPath>
            <g clip-path="url(#_clip1)">
                <g transform="matrix(2.89986,0,0,2.89986,-38.072,-43.4866)">
                    <path d="M16.215,22.383L16.215,26.73C16.215,27.047 16.145,27.363 16.008,27.648L15.07,29.59C15.008,29.719 15.016,29.871 15.09,29.992C15.16,30.109 15.289,30.188 15.426,30.188L19.414,30.188C19.602,31.348 20.578,32.238 21.75,32.238C22.379,32.238 22.977,31.984 23.43,31.516C23.781,31.148 24.008,30.684 24.086,30.188L28.074,30.188C28.211,30.188 28.34,30.109 28.41,29.992C28.484,29.871 28.492,29.719 28.43,29.59L27.492,27.648C27.355,27.363 27.285,27.047 27.285,26.73L27.285,22.383C27.285,20.852 26.711,19.406 25.664,18.32C25.004,17.637 24.199,17.141 23.305,16.867C23.316,16.793 23.332,16.715 23.332,16.637C23.332,15.73 22.621,14.996 21.75,14.996C20.879,14.996 20.168,15.73 20.168,16.637C20.168,16.715 20.184,16.793 20.195,16.871C17.863,17.578 16.215,19.832 16.215,22.383ZM22.871,30.938C22.57,31.246 22.172,31.418 21.75,31.418C21.016,31.418 20.395,30.895 20.219,30.188L23.281,30.188C23.211,30.465 23.07,30.727 22.871,30.938ZM21.75,15.816C22.188,15.816 22.539,16.184 22.539,16.637L22.539,16.695C22.492,16.688 22.445,16.684 22.395,16.68C22.352,16.672 22.309,16.668 22.266,16.664C22.094,16.648 21.922,16.637 21.75,16.637C21.578,16.637 21.406,16.648 21.234,16.664C21.191,16.668 21.148,16.672 21.105,16.68C21.059,16.684 21.008,16.688 20.961,16.695L20.961,16.637C20.961,16.184 21.313,15.816 21.75,15.816ZM20.758,17.566C21.254,17.457 21.754,17.434 22.246,17.484C22.41,17.504 22.578,17.527 22.742,17.563C23.637,17.766 24.457,18.227 25.102,18.902C26,19.832 26.496,21.07 26.496,22.383L26.496,26.73C26.496,27.176 26.594,27.617 26.785,28.016L27.438,29.363L16.063,29.363L16.715,28.016C16.906,27.617 17.004,27.176 17.004,26.73L17.004,22.383C17.004,20.07 18.586,18.043 20.758,17.566" style="fill:rgb(4,6,6);fill-rule:nonzero;"/>
                </g>
            </g>
        </g>
    </g>
</svg>
