<?xml version="1.0" encoding="UTF-8" standalone="no"?>
<!DOCTYPE svg PUBLIC "-//W3C//DTD SVG 1.1//EN" "http://www.w3.org/Graphics/SVG/1.1/DTD/svg11.dtd">
<svg width="100%" height="100%" viewBox="0 0 50 33" version="1.1" xmlns="http://www.w3.org/2000/svg" xmlns:xlink="http://www.w3.org/1999/xlink" xml:space="preserve" xmlns:serif="http://www.serif.com/" style="fill-rule:evenodd;clip-rule:evenodd;stroke-linejoin:round;stroke-miterlimit:2;">
    <g transform="matrix(1,0,0,1,0,-101)">
        <g id="calendar" transform="matrix(1,0,0,0.631609,0,101.516)">
            <rect x="0" y="0" width="50" height="50" style="fill:none;"/>
            <clipPath id="_clip1">
                <rect x="0" y="0" width="50" height="50"/>
            </clipPath>
            <g clip-path="url(#_clip1)">
                <g transform="matrix(1.64988,0,0,2.1509,-7.68385,-101.596)">
                    <path d="M32.504,52.445C32.504,50.664 31.074,49.215 29.32,49.215L28.684,49.215L28.684,49.168C28.684,48.102 27.828,47.234 26.777,47.234C25.727,47.234 24.867,48.102 24.867,49.168L24.867,49.215L17.234,49.215L17.234,49.168C17.234,48.102 16.379,47.234 15.328,47.234C14.277,47.234 13.418,48.102 13.418,49.168L13.418,49.215L12.785,49.215C11.031,49.215 9.602,50.664 9.602,52.445L9.602,54.98L9.645,54.98C9.254,59.402 8.383,61.895 7.281,65.047L7.172,65.359C6.965,65.953 7.051,66.613 7.406,67.121C7.766,67.633 8.348,67.941 8.969,67.941L9.68,67.941C9.996,69.387 11.277,70.48 12.785,70.48L29.324,70.48C31.074,70.48 32.504,69.031 32.504,67.25L32.504,55.008L32.559,54.336L32.504,54.336L32.504,52.445ZM26.141,49.172C26.141,48.813 26.426,48.523 26.777,48.523C27.125,48.523 27.41,48.813 27.41,49.172L27.41,50.461C27.41,50.816 27.125,51.105 26.777,51.105C26.426,51.105 26.141,50.816 26.141,50.461L26.141,49.172ZM14.691,49.172C14.691,48.813 14.977,48.523 15.328,48.523C15.676,48.523 15.961,48.813 15.961,49.172L15.961,50.461C15.961,50.816 15.676,51.105 15.328,51.105C14.977,51.105 14.691,50.816 14.691,50.461L14.691,49.172ZM12.781,50.508L13.422,50.508C13.445,51.555 14.289,52.398 15.328,52.398C16.363,52.398 17.207,51.555 17.23,50.508L24.871,50.508C24.895,51.555 25.738,52.398 26.773,52.398C27.813,52.398 28.656,51.555 28.68,50.508L29.32,50.508C30.371,50.508 31.227,51.375 31.227,52.445L31.227,54.336L10.875,54.336L10.875,52.445C10.875,51.375 11.73,50.508 12.781,50.508ZM8.449,66.379C8.328,66.207 8.301,65.992 8.367,65.793L8.48,65.477C9.523,62.492 10.434,59.895 10.863,55.629L31.172,55.629C30.734,60.406 30.188,63.145 29.063,66.223C28.969,66.484 28.73,66.652 28.461,66.652L8.965,66.652C8.754,66.652 8.566,66.551 8.445,66.379L8.449,66.379ZM29.32,69.188L12.781,69.188C11.961,69.188 11.277,68.672 11.004,67.941L28.461,67.941C29.258,67.941 29.98,67.43 30.258,66.668C30.641,65.617 30.957,64.609 31.23,63.555L31.23,67.25C31.23,68.32 30.375,69.188 29.32,69.188Z" style="fill-rule:nonzero;"/>
                </g>
            </g>
        </g>
    </g>
</svg>
