<?xml version="1.0" encoding="UTF-8" standalone="no"?>
<!DOCTYPE svg PUBLIC "-//W3C//DTD SVG 1.1//EN" "http://www.w3.org/Graphics/SVG/1.1/DTD/svg11.dtd">
<svg width="100%" height="100%" viewBox="0 0 50 33" version="1.1" xmlns="http://www.w3.org/2000/svg" xmlns:xlink="http://www.w3.org/1999/xlink" xml:space="preserve" xmlns:serif="http://www.serif.com/" style="fill-rule:evenodd;clip-rule:evenodd;stroke-linejoin:round;stroke-miterlimit:2;">
    <g transform="matrix(1,0,0,1,0,-50)">
        <g id="course" transform="matrix(1,0,0,0.631609,0,50.758)">
            <rect x="0" y="0" width="50" height="50" style="fill:none;"/>
            <g transform="matrix(1.7328,0,0,2.7786,-10.5809,-70.5443)">
                <path d="M21.816,41.227C23.273,40.766 24.785,40.434 26.352,40.227C28.688,39.922 31.074,40.129 33.398,40.359C33.449,40.363 33.492,40.324 33.5,40.273L33.5,40.258L32.691,27.641C32.688,27.559 32.738,27.484 32.816,27.461C33.137,27.359 33.824,27.309 33.996,27.707C34.063,27.852 34.105,28.07 34.125,28.359C34.434,32.949 34.59,35.27 34.594,35.313C34.609,35.648 34.648,36.238 34.707,37.078C34.848,38.988 34.93,40.359 34.961,41.184C34.977,41.613 34.559,41.816 34.195,41.848C33.367,41.922 32.434,41.895 31.648,41.918C28.621,42.008 25.664,42.07 22.781,42.109C22.727,42.109 22.676,42.141 22.652,42.191C22.367,42.789 21.906,43.164 21.27,43.313C20.234,43.559 19.164,43.156 18.719,42.18C18.699,42.137 18.66,42.113 18.617,42.109C12.773,41.977 9.094,41.891 7.574,41.855C7.145,41.848 6.48,41.758 6.461,41.184C6.461,41.133 6.469,40.98 6.484,40.73C6.613,38.762 6.766,36.441 6.934,33.762C7.059,31.84 7.156,29.965 7.367,27.93C7.395,27.648 7.5,27.48 7.785,27.426C8.074,27.371 8.348,27.379 8.609,27.445C8.672,27.465 8.711,27.52 8.707,27.578L7.934,40.238C7.93,40.309 7.98,40.371 8.051,40.375C8.059,40.375 8.066,40.375 8.07,40.371C9.746,40.172 11.371,40.074 12.941,40.09C15.152,40.109 17.344,40.527 19.461,41.211C19.527,41.23 19.59,41.234 19.645,41.215C19.68,41.203 19.699,41.164 19.688,41.129C19.684,41.113 19.676,41.102 19.664,41.094C19.57,41.023 19.449,40.953 19.297,40.871C18.809,40.613 18.207,40.348 17.496,40.074C14.781,39.035 11.828,38.93 9.023,39.582C8.965,39.598 8.906,39.559 8.891,39.5L8.891,39.473L9.363,25.887C9.367,25.828 9.402,25.773 9.457,25.754C9.648,25.68 9.867,25.621 10.113,25.578C11.789,25.285 13.473,25.348 15.156,25.766C16.855,26.188 18.402,26.887 19.805,27.863C19.887,27.918 20.172,28.117 20.664,28.461C20.691,28.48 20.727,28.48 20.75,28.461C21.648,27.75 22.543,27.227 23.609,26.703C24.23,26.398 24.777,26.172 25.258,26.027C27.184,25.438 29.227,25.203 31.238,25.551C31.5,25.598 31.734,25.656 31.945,25.73C31.992,25.75 32.027,25.797 32.031,25.852C32.078,27.855 32.129,29.762 32.18,31.566C32.242,33.875 32.402,36.605 32.504,39.023C32.512,39.211 32.504,39.371 32.48,39.508C32.473,39.559 32.422,39.594 32.371,39.586L32.367,39.586C28.648,38.746 25.137,39.223 21.824,41.02C21.797,41.035 21.766,41.063 21.734,41.102C21.707,41.133 21.711,41.184 21.742,41.211C21.762,41.227 21.789,41.234 21.816,41.227ZM31.207,38.109C31.246,38.113 31.281,38.086 31.289,38.047L31.289,38.035L30.871,27.082C30.867,27.008 30.813,26.945 30.738,26.938C28.734,26.699 26.871,26.98 24.926,27.703C23.707,28.156 22.531,28.762 21.398,29.512C21.371,29.531 21.355,29.563 21.355,29.594L21.355,39.934C21.355,39.965 21.379,39.988 21.41,39.988C21.418,39.988 21.426,39.984 21.434,39.98C21.977,39.668 22.656,39.289 23.313,39.055C23.867,38.855 24.25,38.723 24.469,38.648C26.418,38.004 28.391,37.793 30.379,38.016C30.66,38.047 30.938,38.078 31.207,38.109ZM20.023,39.953C20.035,39.91 20.039,39.867 20.039,39.82C20.023,34.238 20.02,30.902 20.035,29.82C20.035,29.617 20.051,29.504 19.895,29.402C19.289,29.008 18.805,28.773 18.031,28.379C16.496,27.59 14.836,27.109 13.055,26.93C12.215,26.848 11.391,26.863 10.59,26.98C10.539,26.988 10.504,27.031 10.5,27.082L10.121,38.02C10.117,38.055 10.145,38.086 10.18,38.086L10.191,38.086C12.828,37.613 15.543,38.023 18.012,39.016C18.684,39.289 19.301,39.633 19.973,39.977C19.992,39.984 20.012,39.977 20.023,39.961L20.023,39.953Z" style="fill:rgb(27,26,21);fill-rule:nonzero;"/>
            </g>
        </g>
    </g>
</svg>
