<?xml version="1.0" encoding="UTF-8" standalone="no"?>
<!DOCTYPE svg PUBLIC "-//W3C//DTD SVG 1.1//EN" "http://www.w3.org/Graphics/SVG/1.1/DTD/svg11.dtd">
<svg width="100%" height="100%" viewBox="0 0 50 32" version="1.1" xmlns="http://www.w3.org/2000/svg" xmlns:xlink="http://www.w3.org/1999/xlink" xml:space="preserve" xmlns:serif="http://www.serif.com/" style="fill-rule:evenodd;clip-rule:evenodd;stroke-linejoin:round;stroke-miterlimit:2;">
    <g transform="matrix(1,0,0,1,-97,-106.758)">
        <g id="dashboard" transform="matrix(1,0,0,0.631609,97,106.758)">
            <rect x="0" y="0" width="50" height="50" style="fill:none;"/>
            <g transform="matrix(0.757905,0,0,1.19996,-57.3571,-110.263)">
                <path d="M133.352,131.672L83.977,131.672L83.641,130.82C83.438,130.309 83.25,129.793 83.078,129.273C82.906,128.75 82.754,128.223 82.613,127.691C82.473,127.16 82.352,126.625 82.246,126.086C82.137,125.547 82.047,125.008 81.973,124.461C81.898,123.918 81.844,123.371 81.801,122.824C81.762,122.277 81.738,121.727 81.73,121.18C81.723,120.629 81.73,120.078 81.758,119.531C81.785,118.98 81.824,118.434 81.887,117.891C81.945,117.344 82.02,116.797 82.113,116.258C82.203,115.715 82.313,115.176 82.438,114.641C82.563,114.109 82.703,113.578 82.859,113.051C83.02,112.523 83.191,112.004 83.379,111.488C83.57,110.973 83.773,110.461 83.992,109.961C84.211,109.457 84.445,108.961 84.695,108.473C84.945,107.984 85.211,107.5 85.488,107.027C85.77,106.555 86.063,106.094 86.371,105.637C86.676,105.184 86.996,104.738 87.332,104.305C87.664,103.867 88.012,103.445 88.371,103.031C88.73,102.617 89.105,102.215 89.488,101.824C89.875,101.43 90.27,101.051 90.676,100.684C91.082,100.32 91.504,99.965 91.93,99.625C92.359,99.281 92.797,98.953 93.246,98.641C93.695,98.324 94.152,98.023 94.621,97.738C95.09,97.453 95.563,97.18 96.047,96.922C96.531,96.664 97.023,96.422 97.52,96.195C98.02,95.969 98.523,95.758 99.035,95.559C99.547,95.363 100.063,95.184 100.582,95.02C101.105,94.852 101.633,94.703 102.164,94.57C102.695,94.441 103.23,94.324 103.766,94.223C104.305,94.125 104.848,94.039 105.391,93.973C105.934,93.906 106.477,93.855 107.023,93.824C107.57,93.789 108.117,93.773 108.664,93.773C109.211,93.773 109.758,93.789 110.305,93.824C110.852,93.855 111.395,93.906 111.938,93.973C112.48,94.039 113.023,94.125 113.563,94.223C114.098,94.324 114.633,94.438 115.164,94.57C115.695,94.703 116.223,94.852 116.746,95.02C117.266,95.184 117.785,95.363 118.293,95.559C118.805,95.758 119.309,95.969 119.809,96.195C120.309,96.422 120.797,96.664 121.281,96.922C121.766,97.18 122.242,97.453 122.707,97.738C123.176,98.023 123.633,98.324 124.082,98.641C124.531,98.953 124.969,99.281 125.398,99.625C125.828,99.965 126.246,100.32 126.652,100.684C127.059,101.051 127.457,101.43 127.84,101.824C128.223,102.215 128.598,102.617 128.957,103.031C129.316,103.445 129.664,103.867 129.996,104.305C130.332,104.738 130.652,105.184 130.961,105.637C131.266,106.094 131.559,106.555 131.84,107.027C132.117,107.5 132.383,107.984 132.633,108.473C132.883,108.961 133.117,109.457 133.336,109.961C133.555,110.461 133.762,110.973 133.949,111.488C134.137,112.004 134.309,112.523 134.469,113.051C134.625,113.578 134.766,114.109 134.891,114.641C135.016,115.176 135.125,115.715 135.215,116.258C135.309,116.797 135.383,117.344 135.445,117.891C135.504,118.434 135.547,118.98 135.57,119.531C135.598,120.078 135.605,120.629 135.598,121.18C135.59,121.727 135.566,122.277 135.527,122.824C135.484,123.371 135.43,123.918 135.355,124.461C135.281,125.008 135.191,125.547 135.086,126.086C134.977,126.625 134.855,127.16 134.715,127.691C134.574,128.223 134.422,128.75 134.25,129.273C134.078,129.793 133.891,130.309 133.688,130.82L133.352,131.672ZM115.263,128.969L131.563,128.969C131.848,128.137 132.094,127.293 132.289,126.434C132.484,125.574 132.637,124.707 132.738,123.832C132.844,122.957 132.898,122.078 132.906,121.199C132.914,120.316 132.875,119.438 132.789,118.562C132.703,117.688 132.566,116.816 132.387,115.953C132.207,115.094 131.98,114.242 131.707,113.406C131.434,112.566 131.117,111.746 130.754,110.945C130.395,110.141 129.988,109.363 129.543,108.602C129.098,107.844 128.613,107.113 128.086,106.406C127.562,105.699 127,105.023 126.402,104.379C125.805,103.734 125.172,103.125 124.508,102.551C123.844,101.973 123.148,101.438 122.43,100.937C121.707,100.438 120.957,99.977 120.188,99.559C119.414,99.141 118.621,98.766 117.809,98.43C116.996,98.098 116.168,97.813 115.324,97.57C114.48,97.328 113.625,97.133 112.762,96.984C111.895,96.836 111.023,96.734 110.148,96.68C109.273,96.625 108.398,96.621 107.52,96.66C106.645,96.703 105.773,96.793 104.906,96.93C104.039,97.066 103.18,97.25 102.332,97.477C101.484,97.707 100.652,97.984 99.836,98.305C99.02,98.625 98.223,98.988 97.445,99.398C96.664,99.805 95.91,100.254 95.184,100.742C94.453,101.234 93.754,101.762 93.082,102.328C92.406,102.895 91.77,103.496 91.16,104.133C90.555,104.77 89.984,105.434 89.449,106.133C88.914,106.832 88.418,107.559 87.961,108.309C87.504,109.063 87.09,109.836 86.715,110.633C86.344,111.43 86.016,112.246 85.73,113.082C85.445,113.914 85.207,114.762 85.016,115.621C84.82,116.48 84.676,117.348 84.574,118.223C84.477,119.098 84.426,119.977 84.422,120.855C84.406,123.637 84.852,126.344 85.77,128.969L102.065,128.969C102.151,128.546 102.277,128.135 102.441,127.734C102.613,127.324 102.82,126.934 103.066,126.566C103.313,126.195 103.59,125.855 103.902,125.539C104.215,125.227 104.555,124.945 104.922,124.699C105.289,124.453 105.68,124.246 106.086,124.074C106.496,123.906 106.918,123.777 107.352,123.691C107.785,123.605 108.223,123.559 108.664,123.559C109.105,123.559 109.543,123.605 109.977,123.691C110.41,123.777 110.832,123.906 111.242,124.074C111.278,124.09 111.315,124.105 111.351,124.121C111.362,124.105 111.374,124.09 111.387,124.074L120.004,113.258C120.117,113.117 120.25,113 120.406,112.914C120.566,112.824 120.734,112.77 120.91,112.75C121.09,112.727 121.266,112.742 121.441,112.793C121.613,112.84 121.77,112.922 121.91,113.035C122.055,113.145 122.168,113.281 122.254,113.438C122.344,113.598 122.398,113.766 122.418,113.945C122.438,114.125 122.426,114.301 122.375,114.477C122.324,114.648 122.246,114.805 122.133,114.949L113.571,125.691C113.826,125.964 114.058,126.254 114.262,126.566C114.508,126.934 114.715,127.324 114.887,127.734C115.051,128.135 115.177,128.546 115.263,128.969ZM104.854,128.969L112.474,128.969C112.451,128.902 112.426,128.835 112.398,128.77C112.297,128.523 112.172,128.289 112.023,128.066C111.875,127.848 111.711,127.641 111.52,127.453C111.332,127.266 111.129,127.098 110.91,126.949C110.687,126.801 110.457,126.676 110.211,126.574C109.965,126.473 109.711,126.395 109.453,126.344C109.191,126.289 108.93,126.266 108.664,126.266C108.398,126.266 108.137,126.289 107.875,126.344C107.617,126.395 107.363,126.473 107.117,126.574C106.871,126.676 106.641,126.801 106.418,126.949C106.199,127.098 105.996,127.266 105.809,127.453C105.621,127.641 105.453,127.848 105.305,128.066C105.156,128.289 105.031,128.523 104.93,128.77C104.903,128.835 104.877,128.902 104.854,128.969ZM128.867,122.207C128.688,122.207 128.516,122.176 128.352,122.105C128.188,122.035 128.043,121.937 127.914,121.813C127.789,121.688 127.691,121.539 127.621,121.375C127.555,121.207 127.52,121.035 127.52,120.855C127.52,119.777 127.43,118.707 127.246,117.645C127.063,116.578 126.793,115.539 126.434,114.523C126.07,113.504 125.629,112.527 125.102,111.586C124.574,110.645 123.973,109.758 123.297,108.918C122.617,108.082 121.875,107.309 121.063,106.598C120.254,105.891 119.391,105.254 118.473,104.691C117.555,104.133 116.594,103.652 115.594,103.258C114.594,102.859 113.57,102.551 112.516,102.332C111.465,102.109 110.402,101.98 109.328,101.941C108.254,101.906 107.184,101.961 106.117,102.105C105.055,102.25 104.008,102.484 102.984,102.812C101.957,103.137 100.969,103.547 100.012,104.043C99.059,104.535 98.152,105.109 97.293,105.762C96.437,106.41 95.641,107.129 94.906,107.918C94.172,108.703 93.508,109.547 92.918,110.449C92.324,111.352 91.813,112.297 91.383,113.285C90.324,115.695 89.801,118.219 89.809,120.855C89.809,121.035 89.773,121.207 89.707,121.375C89.637,121.539 89.539,121.688 89.414,121.813C89.289,121.937 89.141,122.035 88.977,122.105C88.813,122.176 88.641,122.207 88.461,122.207C88.281,122.207 88.109,122.176 87.945,122.105C87.781,122.035 87.637,121.937 87.508,121.813C87.383,121.688 87.285,121.539 87.219,121.375C87.148,121.207 87.113,121.035 87.113,120.855C87.109,117.844 87.711,114.961 88.918,112.203C89.41,111.074 89.996,109.996 90.672,108.965C91.348,107.934 92.105,106.973 92.945,106.07C93.785,105.172 94.695,104.352 95.676,103.609C96.656,102.867 97.691,102.211 98.781,101.645C99.871,101.082 101.004,100.613 102.176,100.242C103.348,99.871 104.539,99.602 105.758,99.434C106.973,99.27 108.195,99.207 109.422,99.25C110.652,99.293 111.867,99.441 113.066,99.691C114.27,99.945 115.441,100.297 116.586,100.75C117.727,101.203 118.82,101.75 119.871,102.391C120.918,103.031 121.906,103.758 122.832,104.57C123.758,105.379 124.609,106.262 125.383,107.219C126.156,108.176 126.848,109.191 127.449,110.266C128.051,111.34 128.555,112.457 128.969,113.621C129.379,114.781 129.691,115.969 129.898,117.184C130.109,118.398 130.215,119.625 130.215,120.855C130.215,121.035 130.18,121.207 130.113,121.375C130.043,121.539 129.945,121.688 129.82,121.813C129.691,121.937 129.547,122.035 129.383,122.105C129.219,122.176 129.047,122.207 128.867,122.207Z"/>
            </g>
        </g>
    </g>
</svg>
