<?xml version="1.0" encoding="UTF-8" standalone="no"?>
<!DOCTYPE svg PUBLIC "-//W3C//DTD SVG 1.1//EN" "http://www.w3.org/Graphics/SVG/1.1/DTD/svg11.dtd">
<svg width="100%" height="100%" viewBox="0 0 50 33" version="1.1" xmlns="http://www.w3.org/2000/svg" xmlns:xlink="http://www.w3.org/1999/xlink" xml:space="preserve" xmlns:serif="http://www.serif.com/" style="fill-rule:evenodd;clip-rule:evenodd;stroke-linejoin:round;stroke-miterlimit:2;">
    <g transform="matrix(1,0,0,1,0,-253)">
        <g id="help" transform="matrix(1,0,0,0.631609,0,253.79)">
            <rect x="0" y="0" width="50" height="50" style="fill:none;"/>
            <clipPath id="_clip1">
                <rect x="0" y="0" width="50" height="50"/>
            </clipPath>
            <g clip-path="url(#_clip1)">
                <g transform="matrix(1.31521,0,0,2.08232,-2.44216,-256.084)">
                    <path d="M20.863,122.98C14.246,122.98 8.859,128.367 8.859,134.988C8.859,141.605 14.246,146.992 20.863,146.992C27.484,146.992 32.871,141.605 32.871,134.988C32.871,128.367 27.484,122.98 20.863,122.98M20.863,145.066C15.309,145.066 10.785,140.543 10.785,134.988C10.785,129.43 15.309,124.906 20.863,124.906C26.422,124.906 30.941,129.43 30.941,134.988C30.941,140.543 26.422,145.066 20.863,145.066M20.676,138.855C20.246,138.855 19.879,139.008 19.578,139.309C19.277,139.613 19.125,139.977 19.125,140.402C19.125,140.832 19.277,141.199 19.578,141.5C19.879,141.801 20.246,141.953 20.676,141.953C21.102,141.953 21.469,141.801 21.77,141.5C22.07,141.199 22.223,140.832 22.223,140.402C22.223,139.977 22.07,139.613 21.77,139.309C21.469,139.008 21.102,138.855 20.676,138.855M24.066,128.906C23.613,128.605 23.102,128.383 22.527,128.238C21.957,128.094 21.371,128.02 20.766,128.02C20.191,128.02 19.637,128.113 19.109,128.305C18.582,128.492 18.113,128.746 17.707,129.066C17.297,129.387 16.973,129.754 16.727,130.176C16.48,130.598 16.359,131.039 16.359,131.504C16.359,131.879 16.48,132.164 16.727,132.359C16.973,132.555 17.258,132.652 17.582,132.652C17.887,132.652 18.121,132.59 18.289,132.465C18.461,132.34 18.602,132.184 18.715,132.004C18.828,131.82 18.926,131.621 19.016,131.41C19.102,131.195 19.219,130.996 19.363,130.816C19.508,130.633 19.695,130.48 19.93,130.355C20.16,130.23 20.477,130.168 20.879,130.168C21.445,130.168 21.887,130.309 22.207,130.59C22.527,130.871 22.688,131.273 22.688,131.785C22.688,132.102 22.605,132.375 22.445,132.613C22.285,132.855 22.082,133.082 21.836,133.301C21.59,133.523 21.328,133.734 21.047,133.941C20.762,134.148 20.5,134.375 20.254,134.613C20.012,134.852 19.805,135.109 19.645,135.395C19.48,135.676 19.398,136.008 19.398,136.383C19.398,136.684 19.5,136.969 19.699,137.238C19.898,137.512 20.203,137.645 20.605,137.645C20.918,137.645 21.152,137.594 21.309,137.492C21.469,137.395 21.59,137.266 21.676,137.109C21.766,136.949 21.836,136.777 21.895,136.59C21.949,136.402 22.035,136.227 22.148,136.063C22.25,135.91 22.402,135.762 22.609,135.609C22.816,135.461 23.047,135.293 23.297,135.109C23.551,134.93 23.813,134.727 24.082,134.508C24.352,134.289 24.598,134.047 24.816,133.781C25.035,133.52 25.215,133.223 25.355,132.898C25.492,132.57 25.563,132.199 25.563,131.785C25.563,131.121 25.426,130.551 25.156,130.074C24.883,129.594 24.52,129.207 24.066,128.906" style="fill-rule:nonzero;"/>
                </g>
            </g>
        </g>
    </g>
</svg>
