<?xml version="1.0" encoding="UTF-8" standalone="no"?>
<!DOCTYPE svg PUBLIC "-//W3C//DTD SVG 1.1//EN" "http://www.w3.org/Graphics/SVG/1.1/DTD/svg11.dtd">
<svg width="100%" height="100%" viewBox="0 0 50 32" version="1.1" xmlns="http://www.w3.org/2000/svg" xmlns:xlink="http://www.w3.org/1999/xlink" xml:space="preserve" xmlns:serif="http://www.serif.com/" style="fill-rule:evenodd;clip-rule:evenodd;stroke-linejoin:round;stroke-miterlimit:2;">
    <g transform="matrix(1,0,0,1,0,-203)">
        <g id="history" transform="matrix(1,0,0,0.631609,0,203.032)">
            <rect x="0" y="0" width="50" height="50" style="fill:none;"/>
            <clipPath id="_clip1">
                <rect x="0" y="0" width="50" height="50"/>
            </clipPath>
            <g clip-path="url(#_clip1)">
                <g transform="matrix(1.55318,0,0,2.45908,-5.73934,-237.823)">
                    <path d="M22.922,97.211L24.324,104.316L25.875,102.953C27.785,105.934 27.297,109.938 24.547,112.344C22.703,113.973 20.258,114.477 18.035,113.93L17.34,116.746C20.441,117.52 23.871,116.797 26.457,114.516C30.402,111.051 31.023,105.203 28.059,101.004L29.73,99.531L22.922,97.211ZM13.723,110.809C11.809,107.828 12.297,103.82 15.031,101.414C16.883,99.789 19.32,99.281 21.543,99.832L22.242,97.012C19.137,96.238 15.711,96.957 13.125,99.23C9.184,102.695 8.559,108.543 11.52,112.742L9.844,114.211L16.676,116.547L15.277,109.441L13.723,110.809Z" style="fill-rule:nonzero;"/>
                </g>
            </g>
        </g>
    </g>
</svg>
