<?xml version="1.0" encoding="UTF-8" standalone="no"?>
<!DOCTYPE svg PUBLIC "-//W3C//DTD SVG 1.1//EN" "http://www.w3.org/Graphics/SVG/1.1/DTD/svg11.dtd">
<svg width="100%" height="100%" viewBox="0 0 50 32" version="1.1" xmlns="http://www.w3.org/2000/svg" xmlns:xlink="http://www.w3.org/1999/xlink" xml:space="preserve" xmlns:serif="http://www.serif.com/" style="fill-rule:evenodd;clip-rule:evenodd;stroke-linejoin:round;stroke-miterlimit:2;">
    <g transform="matrix(1,0,0,1,0,-152)">
        <g id="inbox" transform="matrix(1,0,0,0.631609,0,152.274)">
            <rect x="0" y="0" width="50" height="50" style="fill:none;"/>
            <clipPath id="_clip1">
                <rect x="0" y="0" width="50" height="50"/>
            </clipPath>
            <g clip-path="url(#_clip1)">
                <g transform="matrix(1.93613,0,0,2.77853,-14.0328,-206.363)">
                    <path d="M29.965,92.266L10.344,92.266C10.191,92.246 10.086,92.227 10.016,92.215C9.387,92.078 8.867,91.566 8.656,90.961C8.594,90.777 8.57,90.586 8.539,90.395L8.539,76.109C8.574,76.016 8.57,75.914 8.59,75.836C8.613,75.73 8.641,75.609 8.68,75.512C8.945,74.871 9.406,74.473 10.066,74.324C10.129,74.309 10.191,74.301 10.25,74.297C10.332,74.293 10.414,74.273 10.496,74.273C16.891,74.27 23.352,74.27 29.879,74.273C29.93,74.273 29.98,74.277 30.027,74.285C30.078,74.293 30.125,74.301 30.176,74.309C30.348,74.332 30.496,74.371 30.629,74.434C31.254,74.723 31.715,75.328 31.762,76.051C31.77,76.168 31.781,76.281 31.781,76.398C31.754,79.984 31.77,83.574 31.77,87.418C31.77,88.238 31.789,89.105 31.777,89.973C31.773,90.238 31.77,90.418 31.762,90.512C31.707,91.082 31.449,91.543 30.984,91.902C30.762,92.07 30.512,92.18 30.238,92.227C30.148,92.242 30.059,92.254 29.965,92.266ZM19.813,85.09C20.109,85.203 20.457,85.129 20.684,84.91C22.711,82.961 24.723,81.031 26.727,79.121C27.883,78.016 29.031,76.918 30.168,75.828C30.184,75.813 30.184,75.793 30.168,75.773C30.141,75.746 30.105,75.734 30.051,75.734C23.422,75.73 16.871,75.73 10.398,75.73C10.273,75.73 10.199,75.762 10.113,75.844C10.102,75.855 10.102,75.867 10.113,75.883C10.184,75.945 10.254,76.008 10.32,76.074C11.094,76.801 11.961,77.629 12.918,78.555C14.98,80.543 16.977,82.461 18.918,84.316C19.09,84.48 19.266,84.648 19.445,84.824C19.59,84.961 19.715,85.051 19.813,85.09ZM30.332,77.734C30.332,77.727 30.332,77.723 30.328,77.719C30.32,77.715 30.316,77.715 30.313,77.719C30.152,77.848 30.023,77.996 29.871,78.141C28.227,79.723 26.539,81.352 24.809,83.023C24.793,83.043 24.777,83.055 24.758,83.066C24.73,83.086 24.73,83.105 24.754,83.129C24.813,83.18 24.863,83.227 24.906,83.27C25.844,84.176 26.848,85.156 27.926,86.211C28.137,86.414 28.32,86.598 28.477,86.758C28.648,86.93 28.832,87.098 29,87.27C29.137,87.406 29.266,87.535 29.395,87.652C29.609,87.852 29.805,88.063 30.016,88.266C30.117,88.359 30.219,88.457 30.313,88.559C30.316,88.563 30.32,88.566 30.324,88.563C30.336,88.563 30.34,88.559 30.34,88.551L30.34,77.754C30.34,77.75 30.336,77.746 30.336,77.742C30.336,77.738 30.332,77.734 30.332,77.734ZM10.012,88.566C10.152,88.414 10.309,88.258 10.477,88.094C11.98,86.613 13.469,85.148 14.938,83.691C15.102,83.527 15.277,83.355 15.461,83.18C15.5,83.145 15.5,83.109 15.461,83.074C15.391,83.008 15.324,82.945 15.262,82.883C13.488,81.168 11.816,79.559 10.254,78.059C10.16,77.969 10.07,77.883 9.984,77.801C9.98,77.797 9.977,77.797 9.977,77.801L9.969,88.547C9.969,88.586 9.984,88.59 10.012,88.566ZM20.234,86.645C19.527,86.68 18.961,86.414 18.445,85.914C17.973,85.457 17.395,84.895 16.707,84.23C16.676,84.203 16.645,84.176 16.613,84.148C16.59,84.133 16.566,84.133 16.547,84.152C16.461,84.234 16.379,84.324 16.293,84.406C14.496,86.184 12.719,87.945 10.953,89.695C10.73,89.914 10.531,90.109 10.359,90.273C10.262,90.367 10.168,90.457 10.082,90.547C10.059,90.57 10.059,90.598 10.078,90.621C10.219,90.777 10.34,90.766 10.566,90.766L29.898,90.766C30.059,90.766 30.148,90.75 30.23,90.617C30.25,90.586 30.25,90.559 30.223,90.531C28.145,88.5 26.07,86.469 23.996,84.434C23.879,84.32 23.781,84.215 23.699,84.125C23.676,84.098 23.648,84.094 23.621,84.121C23.035,84.68 22.453,85.246 21.875,85.813C21.652,86.027 21.48,86.176 21.359,86.258C21,86.496 20.625,86.625 20.234,86.645Z" style="fill-rule:nonzero;"/>
                </g>
            </g>
        </g>
    </g>
</svg>
