<?xml version="1.0" encoding="UTF-8" standalone="no"?>
<!DOCTYPE svg PUBLIC "-//W3C//DTD SVG 1.1//EN" "http://www.w3.org/Graphics/SVG/1.1/DTD/svg11.dtd">
<svg width="100%" height="100%" viewBox="0 0 50 32" version="1.1" xmlns="http://www.w3.org/2000/svg" xmlns:xlink="http://www.w3.org/1999/xlink" xml:space="preserve" xmlns:serif="http://www.serif.com/" style="fill-rule:evenodd;clip-rule:evenodd;stroke-linejoin:round;stroke-miterlimit:2;">
    <g transform="matrix(1,0,0,1,0,-311)">
        <g id="information" transform="matrix(1,0,0,0.631609,0,311)">
            <rect x="0" y="0" width="50" height="50" style="fill:none;"/>
            <g transform="matrix(1.40358,0,0,2.22222,-45.9025,-273.273)">
                <path d="M50.516,122.973C56.723,122.973 61.766,128.02 61.766,134.223C61.766,140.426 56.723,145.473 50.516,145.473C44.312,145.473 39.266,140.426 39.266,134.223C39.266,128.02 44.312,122.973 50.516,122.973ZM50.516,143.293C55.52,143.293 59.59,139.223 59.59,134.223C59.59,129.219 55.52,125.148 50.516,125.148C45.516,125.148 41.445,129.219 41.445,134.223C41.445,139.223 45.516,143.293 50.516,143.293ZM50.516,127.563C51.117,127.563 51.605,128.051 51.605,128.652C51.605,129.254 51.117,129.742 50.516,129.742C49.918,129.742 49.43,129.258 49.43,128.656L49.43,128.652C49.43,128.051 49.918,127.563 50.516,127.563ZM50.516,130.664C51.117,130.664 51.605,131.152 51.605,131.754L51.605,139.793C51.605,140.391 51.117,140.879 50.516,140.879C49.918,140.879 49.43,140.391 49.43,139.793L49.43,131.754C49.43,131.152 49.918,130.664 50.516,130.664Z"/>
            </g>
        </g>
    </g>
</svg>
