<?xml version="1.0" encoding="UTF-8" standalone="no"?>
<!DOCTYPE svg PUBLIC "-//W3C//DTD SVG 1.1//EN" "http://www.w3.org/Graphics/SVG/1.1/DTD/svg11.dtd">
<svg width="100%" height="100%" viewBox="0 0 50 32" version="1.1" xmlns="http://www.w3.org/2000/svg" xmlns:xlink="http://www.w3.org/1999/xlink" xml:space="preserve" xmlns:serif="http://www.serif.com/" style="fill-rule:evenodd;clip-rule:evenodd;stroke-linejoin:round;stroke-miterlimit:2;">
    <g transform="matrix(1,0,0,1,-258,-125.097)">
        <g id="logo_black" transform="matrix(1,0,0,0.631609,258,125.097)">
            <rect x="0" y="0" width="50" height="50" style="fill:none;"/>
            <g transform="matrix(0.110594,0,0,0.175098,0.7885,8.18855)">
                <path d="M102.675,121.274C91.743,104.774 0,80.339 0,80.339C36.819,76.911 66.656,60.095 66.656,60.095L102.675,121.274ZM102.675,121.274C102.848,121.535 103.001,121.794 103.133,122.051L102.675,121.274ZM115.949,60.32C122.041,59.255 134.22,58.188 145.945,58.188C160.108,58.188 168.788,59.559 176.401,63.974C183.557,67.78 188.583,74.785 188.583,84.225C188.583,93.209 183.253,101.584 171.68,106.001L171.68,106.305C183.406,109.35 192.084,118.334 192.084,131.43C192.084,140.87 187.82,148.178 181.425,153.356C173.963,159.296 161.477,162.643 141.072,162.643C129.653,162.643 121.126,161.883 115.949,161.122L115.949,60.32ZM138.941,99.604L146.554,99.604C158.889,99.604 165.286,94.58 165.286,86.966C165.286,79.2 159.345,75.09 148.84,75.09C143.663,75.09 140.767,75.394 138.941,75.7L138.941,99.604ZM138.941,145.133C141.224,145.437 143.965,145.437 147.925,145.437C158.432,145.437 167.72,141.325 167.72,130.515C167.72,120.312 158.432,116.202 146.86,116.202L138.941,116.202L138.941,145.133ZM264.412,161.578C262.279,159.296 260.148,157.011 257.711,154.269C251.011,159.444 241.722,163.254 229.542,163.254C204.722,163.254 193.758,148.635 193.758,134.171C193.758,120.618 201.525,110.874 213.249,104.629L213.249,104.173C208.834,99.149 205.331,91.687 205.331,84.225C205.331,71.283 215.685,57.122 236.394,57.122C252.231,57.122 264.106,66.41 264.106,81.18C264.106,91.533 258.015,100.519 243.856,107.524L243.704,108.131C249.642,114.83 255.883,122.292 260.91,127.47C265.021,120.923 268.218,111.482 269.589,102.345L290.296,102.345C287.556,118.029 282.379,131.276 273.245,141.325C279.03,148.025 284.968,154.725 291.365,161.578L264.412,161.578ZM235.329,71.588C229.39,71.588 226.193,76.764 226.193,82.095C226.193,87.27 228.475,91.838 233.348,96.865C240.809,91.838 244.464,87.729 244.464,81.789C244.464,76.915 241.572,71.588 235.633,71.588L235.329,71.588ZM246.901,141.325C240.659,135.083 232.284,125.491 223.756,116.051C219.494,119.249 215.685,123.662 215.685,130.363C215.685,139.196 222.233,146.504 233.044,146.504C238.831,146.504 243.856,144.22 246.901,141.325ZM293.341,58.948L355.924,58.948L355.924,77.983L316.488,77.983L316.488,101.432L353.337,101.432L353.337,120.312L316.488,120.312L316.488,161.578L293.341,161.578L293.341,58.948ZM436.476,158.838C432.365,160.817 422.619,163.254 410.287,163.254C374.809,163.254 356.535,141.024 356.535,111.787C356.535,76.764 381.505,57.425 412.571,57.425C424.601,57.425 433.735,59.709 437.846,61.994L432.977,80.267C428.405,78.287 421.856,76.461 413.484,76.461C395.211,76.461 380.899,87.575 380.899,110.415C380.899,130.971 393.079,143.917 413.635,143.917C420.792,143.917 428.405,142.544 433.128,140.566L436.476,158.838ZM115.729,171.983C116.459,171.857 117.917,171.73 119.322,171.73C121.019,171.73 122.06,171.894 122.971,172.423C123.827,172.879 124.431,173.717 124.431,174.85C124.431,175.925 123.793,176.927 122.406,177.457L122.406,177.493C123.809,177.858 124.85,178.935 124.85,180.505C124.85,181.633 124.338,182.509 123.573,183.131C122.678,183.843 121.183,184.245 118.739,184.245C117.372,184.245 116.349,184.152 115.729,184.061L115.729,171.983ZM118.484,176.692L119.396,176.692C120.874,176.692 121.637,176.089 121.637,175.176C121.637,174.248 120.928,173.755 119.67,173.755C119.05,173.755 118.703,173.79 118.484,173.827L118.484,176.692ZM118.484,182.144C118.757,182.183 119.085,182.183 119.56,182.183C120.82,182.183 121.931,181.69 121.931,180.395C121.931,179.171 120.82,178.681 119.432,178.681L118.484,178.681L118.484,182.144ZM127.186,171.819L129.958,171.819L129.958,181.779L134.848,181.779L134.848,184.115L127.186,184.115L127.186,171.819ZM139.883,180.96L139.009,184.115L136.144,184.115L139.883,171.819L143.531,171.819L147.363,184.115L144.351,184.115L143.403,180.96L139.883,180.96ZM143.002,178.879L142.235,176.271C142.015,175.543 141.797,174.63 141.616,173.9L141.579,173.9C141.399,174.63 141.214,175.561 141.013,176.271L140.283,178.879L143.002,178.879ZM157.96,183.787C157.47,184.025 156.302,184.318 154.825,184.318C150.575,184.318 148.386,181.654 148.386,178.15C148.386,173.954 151.377,171.639 155.099,171.639C156.539,171.639 157.634,171.912 158.126,172.184L157.541,174.373C156.997,174.136 156.213,173.918 155.207,173.918C153.02,173.918 151.305,175.25 151.305,177.987C151.305,180.449 152.765,181.998 155.226,181.998C156.082,181.998 156.997,181.835 157.562,181.598L157.96,183.787ZM160.225,171.819L162.98,171.819L162.98,177.258L163.015,177.258C163.289,176.781 163.581,176.344 163.874,175.906L166.646,171.819L170.075,171.819L166.007,177.055L170.276,184.115L167.048,184.115L164.018,178.806L162.98,180.101L162.98,184.115L160.225,184.115L160.225,171.819ZM171.847,171.983C172.703,171.838 173.907,171.73 175.604,171.73C177.317,171.73 178.541,172.058 179.361,172.713C180.163,173.335 180.674,174.356 180.674,175.561C180.674,176.764 180.292,177.804 179.543,178.479C178.595,179.356 177.19,179.775 175.55,179.775C175.185,179.775 174.855,179.756 174.602,179.7L174.602,184.115L171.847,184.115L171.847,171.983ZM174.602,177.566C174.836,177.621 175.112,177.64 175.529,177.64C177.008,177.64 177.92,176.893 177.92,175.651C177.92,174.52 177.137,173.844 175.73,173.844C175.185,173.844 174.803,173.883 174.602,173.937L174.602,177.566ZM194.119,177.841C194.119,181.889 191.695,184.318 188.082,184.318C184.452,184.318 182.3,181.561 182.3,178.041C182.3,174.356 184.671,171.601 188.283,171.601C192.061,171.601 194.119,174.427 194.119,177.841ZM185.238,177.987C185.238,180.412 186.368,182.109 188.227,182.109C190.107,182.109 191.185,180.32 191.185,177.931C191.185,175.707 190.144,173.81 188.227,173.81C186.331,173.81 185.238,175.597 185.238,177.987ZM207.62,177.841C207.62,181.889 205.193,184.318 201.581,184.318C197.953,184.318 195.797,181.561 195.797,178.041C195.797,174.356 198.172,171.601 201.782,171.601C205.558,171.601 207.62,174.427 207.62,177.841ZM198.736,177.987C198.736,180.412 199.865,182.109 201.728,182.109C203.607,182.109 204.683,180.32 204.683,177.931C204.683,175.707 203.643,173.81 201.728,173.81C199.832,173.81 198.736,175.597 198.736,177.987ZM209.883,171.819L212.657,171.819L212.657,181.779L217.542,181.779L217.542,184.115L209.883,184.115L209.883,171.819ZM226.575,180.96L225.699,184.115L222.835,184.115L226.575,171.819L230.224,171.819L234.053,184.115L231.045,184.115L230.095,180.96L226.575,180.96ZM229.693,178.879L228.929,176.271C228.71,175.543 228.49,174.63 228.307,173.9L228.27,173.9C228.089,174.63 227.905,175.561 227.705,176.271L226.977,178.879L229.693,178.879ZM236.099,184.115L236.099,171.819L239.347,171.819L241.9,176.325C242.629,177.621 243.339,179.155 243.905,180.538L243.943,180.538C243.777,178.918 243.725,177.258 243.725,175.396L243.725,171.819L246.276,171.819L246.276,184.115L243.36,184.115L240.731,179.374C240.001,178.06 239.182,176.47 238.597,175.031L238.524,175.031C238.615,176.673 238.65,178.406 238.65,180.412L238.65,184.115L236.099,184.115ZM249.106,172.004C250.127,171.838 251.458,171.73 252.845,171.73C255.199,171.73 256.732,172.168 257.898,173.045C259.174,173.991 259.976,175.507 259.976,177.677C259.976,180.028 259.12,181.654 257.952,182.656C256.658,183.735 254.67,184.245 252.261,184.245C250.82,184.245 249.78,184.152 249.106,184.061L249.106,172.004ZM251.877,182.017C252.114,182.071 252.516,182.071 252.845,182.071C255.38,182.09 257.039,180.704 257.039,177.769C257.039,175.213 255.545,173.862 253.135,173.862C252.535,173.862 252.114,173.918 251.877,173.973L251.877,182.017ZM268.007,174.155L264.684,174.155L264.684,171.819L274.133,171.819L274.133,174.155L270.779,174.155L270.779,184.115L268.007,184.115L268.007,174.155ZM278.824,171.819L278.824,176.545L283.402,176.545L283.402,171.819L286.174,171.819L286.174,184.115L283.402,184.115L283.402,178.97L278.824,178.97L278.824,184.115L276.05,184.115L276.05,171.819L278.824,171.819ZM296.336,178.918L291.812,178.918L291.812,181.835L296.864,181.835L296.864,184.115L289.041,184.115L289.041,171.819L296.611,171.819L296.611,174.101L291.812,174.101L291.812,176.655L296.336,176.655L296.336,178.918ZM303.305,171.819L310.804,171.819L310.804,174.101L306.079,174.101L306.079,176.91L310.494,176.91L310.494,179.171L306.079,179.171L306.079,184.115L303.305,184.115L303.305,171.819ZM316.169,184.115L316.169,179.082L312.281,171.819L315.474,171.819L316.715,174.777C317.098,175.669 317.372,176.325 317.663,177.128L317.7,177.128C317.974,176.362 318.265,175.651 318.63,174.777L319.872,171.819L322.99,171.819L318.941,178.989L318.941,184.115L316.169,184.115ZM324.432,171.819L327.205,171.819L327.205,181.779L332.093,181.779L332.093,184.115L324.432,184.115L324.432,171.819ZM334.155,172.004C335.176,171.838 336.51,171.73 337.896,171.73C340.25,171.73 341.781,172.168 342.949,173.045C344.225,173.991 345.026,175.507 345.026,177.677C345.026,180.028 344.171,181.654 343.003,182.656C341.709,183.735 339.721,184.245 337.313,184.245C335.871,184.245 334.831,184.152 334.155,184.061L334.155,172.004ZM336.927,182.017C337.165,182.071 337.566,182.071 337.896,182.071C340.431,182.09 342.09,180.704 342.09,177.769C342.09,175.213 340.595,173.862 338.186,173.862C337.586,173.862 337.165,173.918 336.927,173.973L336.927,182.017ZM354.589,178.918L350.063,178.918L350.063,181.835L355.116,181.835L355.116,184.115L347.291,184.115L347.291,171.819L354.861,171.819L354.861,174.101L350.063,174.101L350.063,176.655L354.589,176.655L354.589,178.918ZM370.549,183.787C370.059,184.025 368.889,184.318 367.412,184.318C363.162,184.318 360.975,181.654 360.975,178.15C360.975,173.954 363.966,171.639 367.684,171.639C369.128,171.639 370.223,171.912 370.715,172.184L370.131,174.373C369.582,174.136 368.798,173.918 367.795,173.918C365.605,173.918 363.894,175.25 363.894,177.987C363.894,180.449 365.352,181.998 367.816,181.998C368.671,181.998 369.582,181.835 370.149,181.598L370.549,183.787ZM383.521,177.841C383.521,181.889 381.093,184.318 377.482,184.318C373.853,184.318 371.7,181.561 371.7,178.041C371.7,174.356 374.071,171.601 377.683,171.601C381.458,171.601 383.521,174.427 383.521,177.841ZM374.637,177.987C374.637,180.412 375.766,182.109 377.629,182.109C379.508,182.109 380.583,180.32 380.583,177.931C380.583,175.707 379.542,173.81 377.629,173.81C375.731,173.81 374.637,175.597 374.637,177.987ZM385.784,171.819L388.558,171.819L388.558,181.779L393.443,181.779L393.443,184.115L385.784,184.115L385.784,171.819ZM395.526,171.819L398.299,171.819L398.299,181.779L403.185,181.779L403.185,184.115L395.526,184.115L395.526,171.819ZM412.563,178.918L408.041,178.918L408.041,181.835L413.091,181.835L413.091,184.115L405.268,184.115L405.268,171.819L412.835,171.819L412.835,174.101L408.041,174.101L408.041,176.655L412.563,176.655L412.563,178.918ZM425.682,183.55C424.823,183.843 423.197,184.245 421.576,184.245C419.334,184.245 417.708,183.677 416.577,182.602C415.466,181.524 414.842,179.922 414.842,178.115C414.863,174.028 417.838,171.694 421.869,171.694C423.453,171.694 424.676,172.004 425.28,172.276L424.693,174.52C424.018,174.209 423.197,173.991 421.852,173.991C419.531,173.991 417.763,175.287 417.763,177.968C417.763,180.522 419.367,181.998 421.647,181.998C422.271,181.998 422.778,181.926 423,181.835L423,179.244L421.102,179.244L421.102,177.074L425.682,177.074L425.682,183.55ZM435.587,178.918L431.062,178.918L431.062,181.835L436.115,181.835L436.115,184.115L428.288,184.115L428.288,171.819L435.86,171.819L435.86,174.101L431.062,174.101L431.062,176.655L435.587,176.655L435.587,178.918ZM112.519,131.487L62.468,46.271C57.522,34.041 127.54,0 117.096,9.291C106.64,18.578 112.519,131.487 112.519,131.487Z"/>
            </g>
        </g>
    </g>
</svg>
