<?xml version="1.0" encoding="UTF-8" standalone="no"?>
<!DOCTYPE svg PUBLIC "-//W3C//DTD SVG 1.1//EN" "http://www.w3.org/Graphics/SVG/1.1/DTD/svg11.dtd">
<svg width="100%" height="100%" viewBox="0 0 30 31" version="1.1" xmlns="http://www.w3.org/2000/svg" xmlns:xlink="http://www.w3.org/1999/xlink" xml:space="preserve" xmlns:serif="http://www.serif.com/" style="fill-rule:evenodd;clip-rule:evenodd;stroke-linejoin:round;stroke-miterlimit:2;">
    <g transform="matrix(1,0,0,1,-199,-226)">
        <g id="plus" transform="matrix(0.6,0,0,0.6,199,226.758)">
            <rect x="0" y="0" width="50" height="50" style="fill:none;"/>
            <g transform="matrix(1.66667,0,0,1.8,-352.317,-409.7)">
                <path d="M225.64,242.194L212.89,242.194C212.476,242.194 212.14,241.883 212.14,241.5C212.14,241.117 212.476,240.806 212.89,240.806L225.64,240.806L225.64,229C225.64,228.617 225.976,228.306 226.39,228.306C226.804,228.306 227.14,228.617 227.14,229L227.14,240.806L239.89,240.806C240.304,240.806 240.64,241.117 240.64,241.5C240.64,241.883 240.304,242.194 239.89,242.194L227.14,242.194L227.14,254C227.14,254.383 226.804,254.694 226.39,254.694C225.976,254.694 225.64,254.383 225.64,254L225.64,242.194Z"/>
            </g>
        </g>
    </g>
</svg>
