<?xml version="1.0" encoding="UTF-8" standalone="no"?>
<!DOCTYPE svg PUBLIC "-//W3C//DTD SVG 1.1//EN" "http://www.w3.org/Graphics/SVG/1.1/DTD/svg11.dtd">
<svg width="100%" height="100%" viewBox="0 0 1200 630" version="1.1" xmlns="http://www.w3.org/2000/svg" xmlns:xlink="http://www.w3.org/1999/xlink" xml:space="preserve" xmlns:serif="http://www.serif.com/" style="fill-rule:evenodd;clip-rule:evenodd;stroke-linejoin:round;stroke-miterlimit:2;">
    <g transform="matrix(1,0,0,1,-930,0)">
        <g id="Artboard1" transform="matrix(2.34375,0,0,1.23047,930,0)">
            <rect x="0" y="0" width="512" height="512" style="fill:none;"/>
            <clipPath id="_clip1">
                <rect x="0" y="0" width="512" height="512"/>
            </clipPath>
            <g clip-path="url(#_clip1)">
                <g transform="matrix(0.426667,0,0,0.812698,-396.8,0)">
                    <rect x="752" y="-150" width="1489" height="887" style="fill:rgb(91,89,167);"/>
                </g>
                <g transform="matrix(0.122119,0,0,0.232608,256,256)">
                    <g transform="matrix(1,0,0,1,-1000,-1000)">
                        <g transform="matrix(1.33333,0,0,1.33333,0,4.46667e-05)">
                            <clipPath id="_clip2">
                                <rect x="131" y="34.688" width="1212" height="810.313"/>
                            </clipPath>
                            <g clip-path="url(#_clip2)">
                                <path d="M633.43,842.801C633.43,842.801 426.41,856.125 287.332,795.41C58.711,695.59 38,429.211 526.672,389.262C835.012,364.07 1257.5,322.387 1333.85,34.629C1333.85,34.629 1467.53,400.004 655.871,577.895C0.359,721.566 633.43,842.801 633.43,842.801" style="fill:white;fill-rule:nonzero;"/>
                            </g>
                        </g>
                        <g transform="matrix(1.33333,0,0,1.33333,0,4.46667e-05)">
                            <path d="M866.57,657.199C866.57,657.199 1073.59,643.875 1212.67,704.59C1441.29,804.41 1462,1070.79 973.328,1110.74C664.988,1135.93 242.5,1177.61 166.152,1465.37C166.152,1465.37 32.473,1100 844.129,922.105C1499.64,778.434 866.57,657.199 866.57,657.199" style="fill:white;fill-rule:nonzero;"/>
                        </g>
                    </g>
                </g>
            </g>
        </g>
    </g>
</svg>
